<svg width="174" height="174" viewBox="0 0 174 174" fill="none" xmlns="http://www.w3.org/2000/svg">
<path d="M86.8572 173.714L114.017 86.8572L86.8572 -2.13876e-06L144.88 86.8572L86.8572 173.714Z" fill="#90766D"/>
<path d="M87.0226 133.214V121.032L119.341 89.3505C122.432 86.2293 125.007 83.4565 127.068 81.0323C129.129 78.608 130.674 76.2596 131.704 73.9868C132.735 71.7141 133.25 69.2899 133.25 66.7141C133.25 63.7747 132.583 61.2596 131.25 59.1687C129.917 57.0474 128.083 55.4111 125.75 54.2596C123.417 53.108 120.765 52.5323 117.795 52.5323C114.735 52.5323 112.053 53.1687 109.75 54.4414C107.447 55.6838 105.659 57.4565 104.386 59.7596C103.144 62.0626 102.523 64.805 102.523 67.9868H86.4772C86.4772 62.0777 87.8256 56.9414 90.5226 52.5777C93.2196 48.2141 96.9317 44.8353 101.659 42.4414C106.417 40.0474 111.871 38.8505 118.023 38.8505C124.265 38.8505 129.75 40.0171 134.477 42.3505C139.204 44.6838 142.871 47.8808 145.477 51.9414C148.114 56.002 149.432 60.6383 149.432 65.8505C149.432 69.3353 148.765 72.7596 147.432 76.1232C146.098 79.4868 143.75 83.2141 140.386 87.305C137.053 91.3959 132.371 96.3505 126.341 102.169L110.295 118.487V119.123H150.841V133.214H87.0226Z" fill="white"/>
</svg>
