<svg width="174" height="174" viewBox="0 0 174 174" fill="none" xmlns="http://www.w3.org/2000/svg">
<path d="M86.8572 0L59.6978 86.8572L86.8572 173.714L28.8348 86.8572L86.8572 0Z" fill="#91766D"/>
<path d="M45.4943 134.487C38.9489 134.487 33.1307 133.366 28.0398 131.123C22.9792 128.881 18.9792 125.76 16.0398 121.76C13.1004 117.76 11.5398 113.139 11.358 107.896H28.4489C28.6004 110.411 29.4337 112.608 30.9489 114.487C32.464 116.336 34.4792 117.775 36.9943 118.805C39.5095 119.836 42.3277 120.351 45.4489 120.351C48.7822 120.351 51.7367 119.775 54.3125 118.623C56.8883 117.442 58.9034 115.805 60.358 113.714C61.8125 111.623 62.5246 109.214 62.4943 106.487C62.5246 103.669 61.7974 101.184 60.3125 99.0325C58.8277 96.881 56.6761 95.1992 53.858 93.9871C51.0701 92.775 47.7064 92.1689 43.767 92.1689H35.5398V79.1689H43.767C47.0095 79.1689 49.8428 78.6083 52.267 77.4871C54.7216 76.3659 56.6458 74.7901 58.0398 72.7598C59.4337 70.6992 60.1155 68.3204 60.0852 65.6234C60.1155 62.9871 59.5246 60.6992 58.3125 58.7598C57.1307 56.7901 55.4489 55.2598 53.267 54.1689C51.1155 53.078 48.5852 52.5325 45.6761 52.5325C42.8277 52.5325 40.1913 53.0477 37.767 54.078C35.3428 55.1083 33.3883 56.578 31.9034 58.4871C30.4186 60.3659 29.6307 62.6083 29.5398 65.2144H13.3125C13.4337 60.0022 14.9337 55.4265 17.8125 51.4871C20.7216 47.5174 24.6004 44.4265 29.4489 42.2144C34.2973 39.9719 39.7367 38.8507 45.767 38.8507C51.9792 38.8507 57.3731 40.0174 61.9489 42.3507C66.5549 44.6537 70.1155 47.7598 72.6307 51.6689C75.1458 55.578 76.4034 59.8962 76.4034 64.6234C76.4337 69.8659 74.8883 74.2598 71.767 77.8053C68.6761 81.3507 64.6155 83.6689 59.5852 84.7598V85.4871C66.1307 86.3962 71.1458 88.8204 74.6307 92.7598C78.1458 96.6689 79.8883 101.533 79.858 107.351C79.858 112.563 78.3731 117.23 75.4034 121.351C72.464 125.442 68.4034 128.654 63.2216 130.987C58.0701 133.32 52.161 134.487 45.4943 134.487Z" fill="white"/>
</svg>
